<svg width="80" height="80" viewBox="0 0 80 80" fill="none" xmlns="http://www.w3.org/2000/svg">
<rect x="0.5" y="0.5" width="79" height="79" rx="39.5" fill="white" fill-opacity="0.02"/>
<rect x="0.5" y="0.5" width="79" height="79" rx="39.5" stroke="#DFDFDF"/>
<path d="M39.8547 31.722C41.1983 31.722 42.377 31.1973 43.3907 30.1479C44.4044 29.0986 44.9113 27.8783 44.9113 26.4873C44.9113 26.3345 44.8992 26.1174 44.8751 25.8359C44.6981 25.8601 44.5654 25.8802 44.4769 25.8962C43.2378 26.0731 42.1477 26.6802 41.2063 27.7175C40.265 28.7548 39.7943 29.8645 39.7943 31.0465C39.7943 31.1832 39.8144 31.4084 39.8547 31.722ZM44.6699 50.164C45.6274 50.164 46.6854 49.5087 47.8439 48.198C49.0025 46.8873 49.8875 45.3474 50.499 43.5784C48.2221 42.4044 47.0836 40.7199 47.0836 38.5246C47.0836 36.6913 48.0048 35.1233 49.8473 33.8207C48.568 32.2205 46.8785 31.4204 44.7786 31.4204C43.8935 31.4204 43.085 31.5531 42.3528 31.8184L41.8942 31.9873L41.2787 32.2285C40.8765 32.3813 40.5104 32.4577 40.1805 32.4577C39.923 32.4577 39.5851 32.3693 39.1668 32.1924L38.6961 31.9994L38.2496 31.8184C37.5979 31.545 36.8979 31.4083 36.1497 31.4083C34.1463 31.4083 32.5372 32.0838 31.3223 33.4347C30.1074 34.7856 29.5 36.5667 29.5 38.7779C29.5 41.8898 30.4735 44.7645 32.4205 47.4019C33.7722 49.2433 35.0072 50.164 36.1255 50.164C36.6002 50.164 37.0709 50.0715 37.5375 49.8866L38.1289 49.6454L38.5996 49.4765C39.2593 49.2433 39.8667 49.1267 40.4219 49.1267C41.0092 49.1267 41.685 49.2755 42.4494 49.573L42.8235 49.7177C43.6039 50.0153 44.2194 50.164 44.6699 50.164Z" fill="white"/>
</svg>
