<svg width="40" height="17" viewBox="0 0 40 17" fill="none" xmlns="http://www.w3.org/2000/svg">
<path d="M7.47692 2.72044C7.92453 2.15346 8.23786 1.40745 8.14834 0.631592C7.49184 0.661432 6.68614 1.06428 6.22361 1.63126C5.80584 2.10871 5.43284 2.89948 5.53728 3.6455C6.26838 3.70518 7.01439 3.27249 7.47692 2.72044Z" fill="white"/>
<path d="M8.13416 3.77988C7.05989 3.7202 6.14976 4.39161 5.64246 4.39161C5.13517 4.39161 4.3444 3.80972 3.49394 3.82464C2.38984 3.83956 1.36033 4.46621 0.808281 5.46588C-0.340584 7.45028 0.509874 10.4045 1.6289 12.0159C2.18095 12.8216 2.83744 13.7019 3.6879 13.6721C4.50852 13.6422 4.82185 13.1498 5.82151 13.1498C6.82117 13.1498 7.10466 13.6721 7.97004 13.6571C8.86525 13.6422 9.43223 12.8514 9.96936 12.0607C10.596 11.1505 10.8497 10.2702 10.8646 10.2105C10.8497 10.1956 9.13382 9.53912 9.1189 7.56964C9.10398 5.91348 10.4617 5.13763 10.5363 5.07795C9.76047 3.944 8.55193 3.80972 8.13416 3.77988Z" fill="white"/>
<path d="M18.8458 1.54187C21.1734 1.54187 22.7997 3.15327 22.7997 5.49576C22.7997 7.85317 21.1435 9.46456 18.7861 9.46456H16.2049V13.5677H14.3398V1.54187H18.8458ZM16.2049 7.89793H18.3534C19.9797 7.89793 20.9048 7.01763 20.9048 5.51068C20.9048 3.9888 19.9797 3.12343 18.3683 3.12343H16.2198C16.2049 3.12343 16.2049 7.89793 16.2049 7.89793Z" fill="white"/>
<path d="M23.2617 11.0758C23.2617 9.53906 24.4404 8.64384 26.6039 8.52448L28.9314 8.39019V7.71878C28.9314 6.74896 28.2899 6.21183 27.141 6.21183C26.201 6.21183 25.5147 6.68928 25.3804 7.43529H23.6944C23.7392 5.88358 25.2163 4.74963 27.2007 4.74963C29.3343 4.74963 30.7219 5.86866 30.7219 7.59942V13.5825H28.9911V12.1352H28.9464C28.454 13.0752 27.3648 13.672 26.201 13.672C24.4703 13.6571 23.2617 12.6276 23.2617 11.0758ZM28.9314 10.3V9.62858L26.8575 9.76286C25.6937 9.83746 25.082 10.2702 25.082 11.0311C25.082 11.7622 25.7087 12.2396 26.7083 12.2396C27.9765 12.2396 28.9314 11.4339 28.9314 10.3Z" fill="white"/>
<path d="M32.3068 16.7904V15.3431C32.4262 15.3581 32.7096 15.373 32.8588 15.373C33.6795 15.373 34.1569 15.0298 34.4404 14.1197L34.6045 13.5825L31.4414 4.83923H33.396L35.5893 11.9413H35.634L37.8273 4.83923H39.7371L36.4546 14.0302C35.7086 16.1339 34.8432 16.8352 33.023 16.8352C32.8887 16.8352 32.4411 16.8203 32.3068 16.7904Z" fill="white"/>
</svg>
