<svg width="40" height="15" viewBox="0 0 40 15" fill="none" xmlns="http://www.w3.org/2000/svg">
<path d="M2.26039 1.39368L0.269531 6.02252H1.56569L1.93302 5.09562H4.06854L4.43397 6.02252H5.75868L3.76972 1.39368H2.26039ZM2.99697 2.47095L3.64791 4.09067H2.34414L2.99697 2.47095Z" fill="white"/>
<path d="M5.89453 6.02179V1.39294L7.73644 1.39979L8.80775 4.38417L9.85341 1.39294H11.6806V6.02179H10.5234V2.61106L9.29671 6.02179H8.28183L7.05174 2.61106V6.02179H5.89453Z" fill="white"/>
<path d="M12.4727 6.02179V1.39294H16.2488V2.42835H13.642V3.22012H16.1879V4.19462H13.642V5.01685H16.2488V6.02179H12.4727Z" fill="white"/>
<path d="M16.918 1.39368V6.02252H18.0752V4.37806H18.5624L19.9499 6.02252H21.3641L19.8415 4.31716C20.4664 4.26443 21.111 3.72809 21.111 2.89539C21.111 1.92132 20.3464 1.39368 19.4931 1.39368H16.918ZM18.0752 2.42908H19.398C19.7153 2.42908 19.9461 2.67729 19.9461 2.91632C19.9461 3.22384 19.6471 3.40357 19.4151 3.40357H18.0752V2.42908Z" fill="white"/>
<path d="M22.7675 6.02179H21.5859V1.39294H22.7675V6.02179Z" fill="white"/>
<path d="M25.5664 6.02179H25.3114C24.0774 6.02179 23.3281 5.04959 23.3281 3.7264C23.3281 2.37053 24.069 1.39294 25.6273 1.39294H26.9063V2.48925H25.5806C24.948 2.48925 24.5006 2.98293 24.5006 3.73782C24.5006 4.63425 25.0121 5.01076 25.7491 5.01076H26.0537L25.5664 6.02179Z" fill="white"/>
<path d="M28.0846 1.39368L26.0938 6.02252H27.3899L27.7572 5.09562H29.8928L30.2582 6.02252H31.5829L29.5939 1.39368H28.0846ZM28.8212 2.47095L29.4721 4.09067H28.1684L28.8212 2.47095Z" fill="white"/>
<path d="M31.7188 6.02179V1.39294H33.19L35.0686 4.3012V1.39294H36.2258V6.02179H34.8021L32.876 3.0374V6.02179H31.7188Z" fill="white"/>
<path d="M8.69531 14.1223V9.49341H12.4715V10.5288H9.86471V11.3206H12.4106V12.2951H9.86471V13.1173H12.4715V14.1223H8.69531Z" fill="white"/>
<path d="M27.1992 14.1223V9.49341H30.9754V10.5288H28.3686V11.3206H30.9023V12.2951H28.3686V13.1173H30.9754V14.1223H27.1992Z" fill="white"/>
<path d="M12.618 14.1223L14.4566 11.8364L12.5742 9.49341H14.0322L15.1532 10.9418L16.2781 9.49341H17.6789L15.8213 11.8078L17.6632 14.1223H16.2055L15.117 12.6967L14.055 14.1223H12.618Z" fill="white"/>
<path d="M17.8008 9.49414V14.123H18.9884V12.6612H20.2066C21.2373 12.6612 22.0185 12.1144 22.0185 11.051C22.0185 10.1701 21.4058 9.49414 20.3569 9.49414H17.8008ZM18.9884 10.541H20.2713C20.6043 10.541 20.8423 10.745 20.8423 11.0739C20.8423 11.3828 20.6055 11.6068 20.2675 11.6068H18.9884V10.541Z" fill="white"/>
<path d="M22.5234 9.49341V14.1223H23.6806V12.4778H24.1679L25.5554 14.1223H26.9696L25.4469 12.4169C26.0718 12.3642 26.7164 11.8278 26.7164 10.9951C26.7164 10.0211 25.9519 9.49341 25.0986 9.49341H22.5234ZM23.6806 10.5288H25.0034C25.3208 10.5288 25.5516 10.777 25.5516 11.0161C25.5516 11.3236 25.2525 11.5033 25.0206 11.5033H23.6806V10.5288Z" fill="white"/>
<path d="M31.5141 14.1223V13.1173H33.8301C34.1727 13.1173 34.3211 12.9321 34.3211 12.729C34.3211 12.5344 34.1732 12.3377 33.8301 12.3377H32.7835C31.8738 12.3377 31.3672 11.7835 31.3672 10.9513C31.3672 10.2092 31.8311 9.49341 33.1829 9.49341H35.4365L34.9492 10.5349H33.0002C32.6277 10.5349 32.513 10.7304 32.513 10.9171C32.513 11.109 32.6547 11.3206 32.9393 11.3206H34.0356C35.0497 11.3206 35.4898 11.8958 35.4898 12.6491C35.4898 13.4589 34.9994 14.1223 33.9804 14.1223H31.5141Z" fill="white"/>
<path d="M35.7602 14.1223V13.1173H38.0762C38.4188 13.1173 38.5672 12.9321 38.5672 12.729C38.5672 12.5344 38.4193 12.3377 38.0762 12.3377H37.0296C36.1199 12.3377 35.6133 11.7835 35.6133 10.9513C35.6133 10.2092 36.0772 9.49341 37.429 9.49341H39.6826L39.1953 10.5349H37.2463C36.8738 10.5349 36.7591 10.7304 36.7591 10.9171C36.7591 11.109 36.9008 11.3206 37.1854 11.3206H38.2817C39.2958 11.3206 39.7359 11.8958 39.7359 12.6491C39.7359 13.4589 39.2455 14.1223 38.2265 14.1223H35.7602Z" fill="white"/>
</svg>
