<svg width="39" height="19" viewBox="0 0 39 19" fill="none" xmlns="http://www.w3.org/2000/svg">
<g clip-path="url(#clip0_443_11214)">
<path d="M18.4273 9.45248V13.9148H16.9648V2.87891H20.7673C21.6936 2.87891 22.5711 3.21478 23.2536 3.83855C23.9361 4.41434 24.2773 5.27802 24.2773 6.18968C24.2773 7.10135 23.9361 7.91705 23.2536 8.54082C22.5711 9.16459 21.7423 9.50046 20.7673 9.50046L18.4273 9.45248ZM18.4273 4.22241V8.06099H20.8648C21.4011 8.06099 21.9373 7.86906 22.2786 7.48521C23.0586 6.76547 23.0586 5.56591 22.3273 4.84618L22.2786 4.7982C21.8886 4.41434 21.4011 4.17443 20.8648 4.22241H18.4273Z" fill="white"/>
<path d="M27.6411 6.14172C28.7136 6.14172 29.5423 6.42962 30.1761 7.0054C30.8098 7.58119 31.1023 8.34891 31.1023 9.30855V13.9149H29.7373V12.8592H29.6886C29.1036 13.7229 28.2748 14.1548 27.2998 14.1548C26.4711 14.1548 25.7398 13.9149 25.1548 13.435C24.6186 12.9552 24.2773 12.2835 24.2773 11.5637C24.2773 10.796 24.5698 10.1722 25.1548 9.69241C25.7398 9.21259 26.5686 9.02066 27.5436 9.02066C28.4211 9.02066 29.1036 9.16461 29.6398 9.50048V9.16461C29.6398 8.68478 29.4448 8.20496 29.0548 7.91707C28.6648 7.58119 28.1773 7.38926 27.6411 7.38926C26.8123 7.38926 26.1786 7.72514 25.7398 8.39689L24.4723 7.62917C25.2523 6.62155 26.2761 6.14172 27.6411 6.14172ZM25.7886 11.6117C25.7886 11.9956 25.9836 12.3314 26.2761 12.5234C26.6173 12.7633 27.0073 12.9072 27.3973 12.9072C27.9823 12.9072 28.5673 12.6673 29.0061 12.2355C29.4936 11.8036 29.7373 11.2758 29.7373 10.7C29.2986 10.3642 28.6648 10.1722 27.8361 10.1722C27.2511 10.1722 26.7636 10.3162 26.3736 10.6041C25.9836 10.844 25.7886 11.1799 25.7886 11.6117Z" fill="white"/>
<path d="M39.0014 6.38159L34.1752 17.2736H32.7127L34.5164 13.483L31.3477 6.42957H32.9077L35.1989 11.8516H35.2477L37.4902 6.42957H39.0014V6.38159Z" fill="white"/>
<path d="M12.6248 8.49291C12.6248 8.06107 12.5761 7.62923 12.5273 7.19739H6.43359V9.64448H9.89484C9.74859 10.4122 9.30984 11.1319 8.62734 11.5638V13.1472H10.7236C11.9423 12.0436 12.6248 10.4122 12.6248 8.49291Z" fill="white"/>
<path d="M6.43609 14.6826C8.19109 14.6826 9.65359 14.1068 10.7261 13.1471L8.62984 11.5637C8.04484 11.9476 7.31359 12.1875 6.43609 12.1875C4.77859 12.1875 3.31609 11.0839 2.82859 9.54846H0.683594V11.1799C1.80484 13.3391 3.99859 14.6826 6.43609 14.6826Z" fill="white"/>
<path d="M2.82797 9.54846C2.53547 8.78075 2.53547 7.91707 2.82797 7.10137V5.46997H0.682969C-0.243281 7.24532 -0.243281 9.35654 0.682969 11.1799L2.82797 9.54846Z" fill="white"/>
<path d="M6.43422 4.51036C7.36047 4.51036 8.23797 4.84623 8.92047 5.47L10.773 3.64667C9.60297 2.59106 8.04297 1.96729 6.48297 2.01528C4.04547 2.01528 1.80297 3.35878 0.730469 5.51798L2.87547 7.14938C3.31422 5.61395 4.77672 4.51036 6.43422 4.51036Z" fill="white"/>
</g>
<defs>
<clipPath id="clip0_443_11214">
<rect width="39" height="18.2812" fill="white"/>
</clipPath>
</defs>
</svg>
