<svg width="34" height="22" viewBox="0 0 34 22" fill="none" xmlns="http://www.w3.org/2000/svg">
<path d="M21.5686 2.28638H12.375V19.0904H21.5686V2.28638Z" fill="#C2C2C2"/>
<path d="M12.988 10.6884C12.988 7.27435 14.5656 4.24423 16.9864 2.28642C15.2048 0.861299 12.9574 0 10.506 0C4.6988 0 0 4.78038 0 10.6884C0 16.5964 4.6988 21.3768 10.506 21.3768C12.9574 21.3768 15.2048 20.5155 16.9864 19.0904C14.5622 17.1603 12.988 14.1025 12.988 10.6884Z" fill="white"/>
<path d="M33.9747 10.6884C33.9747 16.5964 29.2759 21.3768 23.4687 21.3768C21.0173 21.3768 18.7699 20.5155 16.9883 19.0904C19.4397 17.1291 20.9867 14.1025 20.9867 10.6884C20.9867 7.27435 19.4091 4.24423 16.9883 2.28642C18.7665 0.861299 21.0139 0 23.4653 0C29.2759 0 33.9747 4.81152 33.9747 10.6884Z" fill="white"/>
</svg>
