<svg width="39" height="11" viewBox="0 0 39 11" fill="none" xmlns="http://www.w3.org/2000/svg">
<g clip-path="url(#clip0_443_11224)">
<path d="M4.68 0.000688553H1.64657C1.43896 0.000688553 1.26244 0.151537 1.23005 0.356523L0.00318543 8.13504C-0.0212159 8.28846 0.0976819 8.42688 0.253344 8.42688H1.70155C1.90913 8.42688 2.08565 8.2761 2.11804 8.07073L2.44892 5.97276C2.48088 5.76735 2.65783 5.61653 2.86497 5.61653H3.82527C5.82346 5.61653 6.97668 4.64959 7.27789 2.73346C7.41359 1.89513 7.28364 1.23648 6.89108 0.775192C6.45995 0.268605 5.69527 0.000688553 4.68 0.000688553ZM5.02997 2.8417C4.86407 3.93017 4.03241 3.93017 3.22824 3.93017H2.77051L3.09163 1.89738C3.11072 1.7745 3.21715 1.68402 3.34136 1.68402H3.55114C4.09892 1.68402 4.61569 1.68402 4.88269 1.99625C5.04194 2.18257 5.09073 2.45933 5.02997 2.8417Z" fill="white"/>
<path d="M13.7455 2.80661H12.293C12.1692 2.80661 12.0623 2.8971 12.0432 3.01998L11.979 3.42626L11.8773 3.27899C11.5629 2.82256 10.8616 2.67001 10.1617 2.67001C8.55648 2.67001 7.18546 3.88577 6.91845 5.59123C6.77963 6.44195 6.97701 7.25543 7.45958 7.8227C7.90224 8.34431 8.53562 8.56165 9.28926 8.56165C10.5827 8.56165 11.2999 7.73004 11.2999 7.73004L11.2351 8.13367C11.2107 8.28802 11.3296 8.4264 11.4844 8.4264H12.7928C13.0008 8.4264 13.1765 8.27558 13.2093 8.07025L13.9944 3.09846C14.0193 2.94543 13.9008 2.80661 13.7455 2.80661ZM11.7208 5.63381C11.5807 6.46367 10.9219 7.02082 10.0819 7.02082C9.66008 7.02082 9.32294 6.8855 9.10647 6.62913C8.89181 6.37453 8.81018 6.01215 8.87851 5.6085C9.00934 4.78573 9.67914 4.21047 10.5063 4.21047C10.9189 4.21047 11.2542 4.34751 11.4751 4.60606C11.6964 4.86732 11.7842 5.23193 11.7208 5.63381Z" fill="white"/>
<path d="M21.4828 2.8066H20.0231C19.8838 2.8066 19.7529 2.87579 19.674 2.99158L17.6607 5.95716L16.8073 3.10734C16.7537 2.92901 16.5891 2.8066 16.4028 2.8066H14.9684C14.794 2.8066 14.673 2.97691 14.7284 3.14102L16.3363 7.85951L14.8247 9.99346C14.7058 10.1615 14.8255 10.3927 15.031 10.3927H16.4889C16.6272 10.3927 16.7568 10.3252 16.8353 10.2117L21.6903 3.2036C21.8066 3.0359 21.6873 2.8066 21.4828 2.8066Z" fill="white"/>
<path d="M26.3167 0.000688553H23.2828C23.0757 0.000688553 22.8991 0.151537 22.8667 0.356523L21.6399 8.13504C21.6156 8.28846 21.7344 8.42688 21.8892 8.42688H23.4461C23.5906 8.42688 23.7145 8.32136 23.737 8.17763L24.0852 5.97276C24.1171 5.76735 24.2942 5.61653 24.5013 5.61653H25.4611C27.4597 5.61653 28.6125 4.64959 28.9141 2.73346C29.0504 1.89513 28.9195 1.23648 28.5269 0.775192C28.0962 0.268605 27.332 0.000688553 26.3167 0.000688553ZM26.6667 2.8417C26.5012 3.93017 25.6696 3.93017 24.865 3.93017H24.4077L24.7293 1.89738C24.7484 1.7745 24.8539 1.68402 24.9785 1.68402H25.1883C25.7357 1.68402 26.2529 1.68402 26.5198 1.99625C26.6791 2.18257 26.7274 2.45933 26.6667 2.8417Z" fill="white"/>
<path d="M35.3844 2.80661H33.9326C33.808 2.80661 33.7019 2.8971 33.6833 3.01998L33.619 3.42626L33.517 3.27899C33.2025 2.82256 32.5017 2.67001 31.8018 2.67001C30.1965 2.67001 28.826 3.88577 28.5589 5.59123C28.4206 6.44195 28.6171 7.25543 29.0997 7.8227C29.5432 8.34431 30.1757 8.56165 30.9293 8.56165C32.2227 8.56165 32.9399 7.73004 32.9399 7.73004L32.8751 8.13367C32.8508 8.28802 32.9696 8.4264 33.1254 8.4264H34.4334C34.6405 8.4264 34.8171 8.27558 34.8495 8.07025L35.635 3.09846C35.6588 2.94543 35.54 2.80661 35.3844 2.80661ZM33.3595 5.63381C33.2202 6.46367 32.5606 7.02082 31.7206 7.02082C31.2996 7.02082 30.9617 6.8855 30.7452 6.62913C30.5306 6.37453 30.4498 6.01215 30.5173 5.6085C30.649 4.78573 31.3179 4.21047 32.1451 4.21047C32.5576 4.21047 32.8929 4.34751 33.1138 4.60606C33.336 4.86732 33.4238 5.23193 33.3595 5.63381Z" fill="white"/>
<path d="M37.0959 0.214096L35.8508 8.13504C35.8265 8.28846 35.9453 8.42688 36.1001 8.42688H37.3518C37.5598 8.42688 37.7364 8.2761 37.7683 8.07073L38.996 0.292666C39.0205 0.139135 38.9016 0.000319481 38.7468 0.000319481H37.3451C37.2214 0.000689507 37.115 0.0912905 37.0959 0.214096Z" fill="white"/>
</g>
<defs>
<clipPath id="clip0_443_11224">
<rect width="39" height="10.3927" fill="white"/>
</clipPath>
</defs>
</svg>
