<svg width="21" height="21" viewBox="0 0 21 21" fill="none" xmlns="http://www.w3.org/2000/svg">
<mask id="mask0_328_971" style="mask-type:alpha" maskUnits="userSpaceOnUse" x="0" y="0" width="21" height="21">
<rect width="21" height="21" fill="#D9D9D9"/>
</mask>
<g mask="url(#mask0_328_971)">
</g>
<path d="M8.24899 4.82082C8.71411 3.4597 10.5948 3.41848 11.1462 4.69715L11.1929 4.82159L11.8206 6.65715C11.9644 7.07811 12.1968 7.46332 12.5022 7.78681C12.8076 8.1103 13.1788 8.36454 13.5908 8.53237L13.7596 8.59537L15.5951 9.22226C16.9562 9.68737 16.9974 11.568 15.7196 12.1195L15.5951 12.1661L13.7596 12.7938C13.3384 12.9376 12.9531 13.17 12.6295 13.4754C12.3058 13.7807 12.0515 14.152 11.8835 14.564L11.8206 14.732L11.1937 16.5684C10.7285 17.9295 8.84788 17.9707 8.29722 16.6928L8.24899 16.5684L7.6221 14.7328C7.47836 14.3117 7.24595 13.9263 6.94057 13.6027C6.63519 13.2791 6.26394 13.0247 5.85188 12.8568L5.68388 12.7938L3.84833 12.1669C2.48644 11.7018 2.44522 9.82115 3.72388 9.27048L3.84833 9.22226L5.68388 8.59537C6.10484 8.45153 6.49006 8.21908 6.81355 7.9137C7.13703 7.60833 7.39127 7.23713 7.55911 6.82515L7.6221 6.65715L8.24899 4.82082ZM9.72133 5.32326L9.09444 7.15882C8.87541 7.80072 8.51909 8.38716 8.0503 8.87731C7.58151 9.36746 7.01151 9.74954 6.37999 9.99693L6.18555 10.0677L4.34999 10.6946L6.18555 11.3215C6.82745 11.5405 7.4139 11.8968 7.90405 12.3656C8.3942 12.8344 8.77627 13.4044 9.02366 14.0359L9.09444 14.2304L9.72133 16.0659L10.3482 14.2304C10.5672 13.5885 10.9236 13.002 11.3924 12.5119C11.8611 12.0217 12.4311 11.6397 13.0627 11.3923L13.2571 11.3223L15.0927 10.6946L13.2571 10.0677C12.6152 9.84868 12.0288 9.49236 11.5386 9.02357C11.0485 8.55477 10.6664 7.98478 10.419 7.35326L10.349 7.15882L9.72133 5.32326ZM15.9436 2.13904C16.0891 2.13904 16.2316 2.17985 16.3551 2.25685C16.4786 2.33384 16.578 2.44393 16.642 2.57459L16.6793 2.66559L16.9516 3.46359L17.7503 3.73582C17.8961 3.78536 18.024 3.87707 18.1176 3.99934C18.2113 4.12161 18.2665 4.26892 18.2763 4.42261C18.2862 4.5763 18.2501 4.72945 18.1728 4.86265C18.0955 4.99585 17.9804 5.1031 17.8421 5.17082L17.7503 5.20815L16.9523 5.48037L16.6801 6.27915C16.6305 6.42493 16.5387 6.55269 16.4164 6.64625C16.2941 6.73982 16.1467 6.79496 15.993 6.80471C15.8394 6.81446 15.6862 6.77836 15.5531 6.701C15.4199 6.62364 15.3128 6.50849 15.2451 6.37015L15.2078 6.27915L14.9356 5.48115L14.1368 5.20893C13.991 5.15939 13.8631 5.06767 13.7695 4.9454C13.6758 4.82314 13.6206 4.67582 13.6108 4.52213C13.601 4.36844 13.637 4.21529 13.7143 4.08209C13.7916 3.94889 13.9067 3.84164 14.045 3.77393L14.1368 3.73659L14.9348 3.46437L15.207 2.66559C15.2594 2.51192 15.3587 2.37852 15.4908 2.28409C15.6228 2.18966 15.7812 2.13894 15.9436 2.13904Z" fill="#535353"/>
</svg>
