<svg width="24" height="24" viewBox="0 0 24 24" fill="none" xmlns="http://www.w3.org/2000/svg">
<path d="M10.3693 17.3673L18.5943 9.14232L16.9609 7.50899L10.3693 14.1007L7.04427 10.7757L5.41094 12.409L10.3693 17.3673ZM12.0026 23.6673C10.3887 23.6673 8.87205 23.3611 7.4526 22.7486C6.03316 22.1361 4.79844 21.3048 3.74844 20.2548C2.69844 19.2048 1.86719 17.9701 1.25469 16.5507C0.642188 15.1312 0.335938 13.6145 0.335938 12.0007C0.335938 10.3868 0.642188 8.8701 1.25469 7.45065C1.86719 6.03121 2.69844 4.79648 3.74844 3.74648C4.79844 2.69648 6.03316 1.86523 7.4526 1.25273C8.87205 0.640234 10.3887 0.333984 12.0026 0.333984C13.6165 0.333984 15.1332 0.640234 16.5526 1.25273C17.972 1.86523 19.2068 2.69648 20.2568 3.74648C21.3068 4.79648 22.138 6.03121 22.7505 7.45065C23.363 8.8701 23.6693 10.3868 23.6693 12.0007C23.6693 13.6145 23.363 15.1312 22.7505 16.5507C22.138 17.9701 21.3068 19.2048 20.2568 20.2548C19.2068 21.3048 17.972 22.1361 16.5526 22.7486C15.1332 23.3611 13.6165 23.6673 12.0026 23.6673Z" fill="url(#paint0_linear_377_11659)"/>
<defs>
<linearGradient id="paint0_linear_377_11659" x1="1.28555" y1="7.72288" x2="23.9871" y2="8.73077" gradientUnits="userSpaceOnUse">
<stop stop-color="#FFA05C"/>
<stop offset="1" stop-color="#FF804D"/>
</linearGradient>
</defs>
</svg>
