<svg width="9" height="16" viewBox="0 0 9 16" fill="none" xmlns="http://www.w3.org/2000/svg">
<path d="M5.59115 8.03099L0.391144 13.231C0.1467 13.4754 0.024477 13.7865 0.024477 14.1643C0.024477 14.5421 0.1467 14.8532 0.391144 15.0977C0.635589 15.3421 0.946699 15.4643 1.32448 15.4643C1.70226 15.4643 2.01337 15.3421 2.25781 15.0977L8.39115 8.96432C8.52448 8.83099 8.61892 8.68655 8.67448 8.53099C8.73003 8.37543 8.75781 8.20877 8.75781 8.03099C8.75781 7.85321 8.73003 7.68655 8.67448 7.53099C8.61892 7.37543 8.52448 7.23099 8.39115 7.09766L2.25781 0.964323C2.01337 0.719878 1.70226 0.597656 1.32448 0.597656C0.946699 0.597656 0.635589 0.719878 0.391144 0.964323C0.1467 1.20877 0.024477 1.51988 0.024477 1.89766C0.024477 2.27543 0.1467 2.58655 0.391144 2.83099L5.59115 8.03099Z" fill="white"/>
</svg>
