<svg width="18" height="18" viewBox="0 0 18 18" fill="none" xmlns="http://www.w3.org/2000/svg">
<g filter="url(#filter0_b_702_12747)">
<rect width="18" height="18" rx="9" fill="black" fill-opacity="0.05"/>
<mask id="mask0_702_12747" style="mask-type:alpha" maskUnits="userSpaceOnUse" x="2" y="2" width="16" height="16">
<rect x="2" y="2" width="16" height="16" fill="#D9D9D9"/>
</mask>
<g mask="url(#mask0_702_12747)">
<path d="M9.0026 11.0856C8.92483 11.0856 8.85191 11.0734 8.78385 11.0491C8.7158 11.0248 8.6526 10.9835 8.59427 10.9252L6.49427 8.82516C6.3776 8.7085 6.3217 8.57238 6.32656 8.41683C6.33142 8.26127 6.38733 8.12516 6.49427 8.0085C6.61094 7.89183 6.74948 7.83106 6.9099 7.8262C7.07031 7.82134 7.20885 7.87725 7.32552 7.99391L8.41927 9.08766V4.91683C8.41927 4.75155 8.47517 4.61301 8.58698 4.5012C8.69878 4.3894 8.83733 4.3335 9.0026 4.3335C9.16788 4.3335 9.30642 4.3894 9.41823 4.5012C9.53003 4.61301 9.58594 4.75155 9.58594 4.91683V9.08766L10.6797 7.99391C10.7964 7.87725 10.9349 7.82134 11.0953 7.8262C11.2557 7.83106 11.3943 7.89183 11.5109 8.0085C11.6179 8.12516 11.6738 8.26127 11.6786 8.41683C11.6835 8.57238 11.6276 8.7085 11.5109 8.82516L9.41094 10.9252C9.3526 10.9835 9.28941 11.0248 9.22135 11.0491C9.1533 11.0734 9.08038 11.0856 9.0026 11.0856ZM5.5026 13.6668C5.18177 13.6668 4.90712 13.5526 4.67865 13.3241C4.45017 13.0956 4.33594 12.821 4.33594 12.5002V11.3335C4.33594 11.1682 4.39184 11.0297 4.50365 10.9179C4.61545 10.8061 4.75399 10.7502 4.91927 10.7502C5.08455 10.7502 5.22309 10.8061 5.3349 10.9179C5.4467 11.0297 5.5026 11.1682 5.5026 11.3335V12.5002H12.5026V11.3335C12.5026 11.1682 12.5585 11.0297 12.6703 10.9179C12.7821 10.8061 12.9207 10.7502 13.0859 10.7502C13.2512 10.7502 13.3898 10.8061 13.5016 10.9179C13.6134 11.0297 13.6693 11.1682 13.6693 11.3335V12.5002C13.6693 12.821 13.555 13.0956 13.3266 13.3241C13.0981 13.5526 12.8234 13.6668 12.5026 13.6668H5.5026Z" fill="white"/>
</g>
</g>
<defs>
<filter id="filter0_b_702_12747" x="-25" y="-25" width="68" height="68" filterUnits="userSpaceOnUse" color-interpolation-filters="sRGB">
<feFlood flood-opacity="0" result="BackgroundImageFix"/>
<feGaussianBlur in="BackgroundImageFix" stdDeviation="12.5"/>
<feComposite in2="SourceAlpha" operator="in" result="effect1_backgroundBlur_702_12747"/>
<feBlend mode="normal" in="SourceGraphic" in2="effect1_backgroundBlur_702_12747" result="shape"/>
</filter>
</defs>
</svg>
