<svg width="17" height="17" viewBox="0 0 17 17" fill="none" xmlns="http://www.w3.org/2000/svg">
<mask id="mask0_631_13033" style="mask-type:alpha" maskUnits="userSpaceOnUse" x="0" y="0" width="17" height="17">
<rect width="17" height="17" fill="#D9D9D9"/>
</mask>
<g mask="url(#mask0_631_13033)">
<path d="M4.34867 14.0417C4.16603 14.0417 4.01368 13.9806 3.89161 13.8584C3.76943 13.7363 3.70833 13.584 3.70833 13.4013V12.1809C3.70833 12.0102 3.74151 11.8461 3.80785 11.6886C3.87408 11.531 3.96534 11.394 4.08162 11.2778L13.0543 2.31609C13.1642 2.20618 13.2849 2.12602 13.4166 2.07561C13.5483 2.02521 13.68 2 13.8116 2C13.9506 2 14.0852 2.02521 14.2156 2.07561C14.3458 2.12602 14.4599 2.20618 14.5581 2.31609L15.4339 3.19195C15.5438 3.29005 15.624 3.40421 15.6744 3.53443C15.7248 3.66476 15.75 3.7994 15.75 3.93835C15.75 4.06999 15.7248 4.20168 15.6744 4.33343C15.624 4.46506 15.5438 4.58583 15.4339 4.69574L6.47225 13.6684C6.35597 13.7847 6.21902 13.8759 6.06142 13.9421C5.90393 14.0085 5.73983 14.0417 5.56912 14.0417H4.34867ZM13.704 4.93268L14.6875 3.94933L13.8007 3.0625L12.8173 4.04602L13.704 4.93268ZM10.5329 14.0417C11.3611 14.0417 12.1289 13.8391 12.8363 13.4341C13.5437 13.029 13.8974 12.4642 13.8974 11.7396C13.8974 11.3709 13.7939 11.0433 13.5869 10.7568C13.3799 10.4703 13.0933 10.2157 12.7274 9.99319C12.6029 9.91149 12.4701 9.87743 12.3289 9.89101C12.1877 9.9047 12.0726 9.96651 11.9836 10.0764C11.8946 10.1862 11.8569 10.3172 11.8705 10.4694C11.8842 10.6214 11.9532 10.7384 12.0776 10.8202C12.311 10.959 12.4956 11.1031 12.6314 11.2526C12.7671 11.4019 12.835 11.5643 12.835 11.7396C12.835 12.0746 12.6048 12.365 12.1444 12.6107C11.684 12.8563 11.1468 12.9792 10.5329 12.9792C10.3822 12.9792 10.2559 13.03 10.1542 13.1318C10.0525 13.2335 10.0017 13.3597 10.0017 13.5104C10.0017 13.6612 10.0525 13.7874 10.1542 13.889C10.2559 13.9908 10.3822 14.0417 10.5329 14.0417ZM7.25 3.94792C7.25 4.15404 7.13307 4.34092 6.8992 4.50856C6.66545 4.67608 6.16985 4.93102 5.41241 5.27339C4.49972 5.67289 3.86948 6.03065 3.52169 6.34669C3.1739 6.66272 3 7.04369 3 7.48958C3 7.78295 3.07538 8.03972 3.22614 8.2599C3.37689 8.48007 3.56442 8.66967 3.78873 8.82869C3.90584 8.92219 4.03387 8.95896 4.17282 8.93901C4.31177 8.91894 4.428 8.85035 4.5215 8.73324C4.61512 8.61613 4.65372 8.48698 4.63731 8.34578C4.62102 8.20459 4.55426 8.08718 4.43703 7.99356C4.31355 7.91187 4.22028 7.82899 4.15724 7.74494C4.09408 7.661 4.0625 7.57588 4.0625 7.48958C4.0625 7.31156 4.18126 7.13583 4.41879 6.96241C4.6562 6.78898 5.1286 6.55016 5.83599 6.24593C6.82045 5.82459 7.47932 5.44339 7.81259 5.10232C8.14586 4.76138 8.3125 4.37658 8.3125 3.94792C8.3125 3.36673 8.06753 2.89681 7.5776 2.53816C7.08767 2.17939 6.44722 2 5.65625 2C5.17045 2 4.72367 2.08766 4.31591 2.26297C3.90814 2.43816 3.60344 2.65249 3.4018 2.90596C3.30382 3.02307 3.2632 3.15222 3.27997 3.29342C3.29673 3.43461 3.36373 3.5506 3.48096 3.64139C3.59807 3.735 3.7261 3.77337 3.86505 3.75649C4.004 3.73973 4.12247 3.68229 4.22046 3.58419C4.39943 3.40533 4.60514 3.27364 4.83759 3.18912C5.07005 3.10471 5.34293 3.0625 5.65625 3.0625C6.17664 3.0625 6.57236 3.15033 6.84342 3.326C7.11447 3.50178 7.25 3.70909 7.25 3.94792Z" fill="#818181"/>
</g>
</svg>
