<svg width="17" height="17" viewBox="0 0 17 17" fill="none" xmlns="http://www.w3.org/2000/svg">
<mask id="mask0_328_980" style="mask-type:alpha" maskUnits="userSpaceOnUse" x="0" y="0" width="17" height="17">
<rect width="17" height="17" fill="#D9D9D9"/>
</mask>
<g mask="url(#mask0_328_980)">
<path d="M11.3327 14.1676C11.132 14.1676 10.9638 14.0997 10.828 13.9639C10.6922 13.8282 10.6243 13.6599 10.6243 13.4592V9.91756C10.6243 9.71687 10.6922 9.54864 10.828 9.41287C10.9638 9.27711 11.132 9.20923 11.3327 9.20923H14.8743C15.075 9.20923 15.2433 9.27711 15.379 9.41287C15.5148 9.54864 15.5827 9.71687 15.5827 9.91756V13.4592C15.5827 13.6599 15.5148 13.8282 15.379 13.9639C15.2433 14.0997 15.075 14.1676 14.8743 14.1676H11.3327ZM8.49935 7.79256C8.29866 7.79256 8.13043 7.72468 7.99466 7.58892C7.8589 7.45315 7.79102 7.28492 7.79102 7.08423V3.54256C7.79102 3.34187 7.8589 3.17364 7.99466 3.03787C8.13043 2.90211 8.29866 2.83423 8.49935 2.83423H14.8743C15.075 2.83423 15.2433 2.90211 15.379 3.03787C15.5148 3.17364 15.5827 3.34187 15.5827 3.54256V7.08423C15.5827 7.28492 15.5148 7.45315 15.379 7.58892C15.2433 7.72468 15.075 7.79256 14.8743 7.79256H8.49935ZM2.12435 14.1676C1.92365 14.1676 1.75543 14.0997 1.61966 13.9639C1.4839 13.8282 1.41602 13.6599 1.41602 13.4592V9.91756C1.41602 9.71687 1.4839 9.54864 1.61966 9.41287C1.75543 9.27711 1.92365 9.20923 2.12435 9.20923H8.49935C8.70004 9.20923 8.86827 9.27711 9.00404 9.41287C9.1398 9.54864 9.20768 9.71687 9.20768 9.91756V13.4592C9.20768 13.6599 9.1398 13.8282 9.00404 13.9639C8.86827 14.0997 8.70004 14.1676 8.49935 14.1676H2.12435ZM2.12435 7.79256C1.92365 7.79256 1.75543 7.72468 1.61966 7.58892C1.4839 7.45315 1.41602 7.28492 1.41602 7.08423V3.54256C1.41602 3.34187 1.4839 3.17364 1.61966 3.03787C1.75543 2.90211 1.92365 2.83423 2.12435 2.83423H5.66602C5.86671 2.83423 6.03494 2.90211 6.1707 3.03787C6.30647 3.17364 6.37435 3.34187 6.37435 3.54256V7.08423C6.37435 7.28492 6.30647 7.45315 6.1707 7.58892C6.03494 7.72468 5.86671 7.79256 5.66602 7.79256H2.12435ZM9.20768 6.3759H14.166V4.2509H9.20768V6.3759ZM2.83268 12.7509H7.79102V10.6259H2.83268V12.7509ZM12.041 12.7509H14.166V10.6259H12.041V12.7509ZM2.83268 6.3759H4.95768V4.2509H2.83268V6.3759Z" fill="#535353"/>
</g>
</svg>
