<svg width="20" height="20" viewBox="0 0 20 20" fill="none" xmlns="http://www.w3.org/2000/svg">
<mask id="mask0_328_966" style="mask-type:alpha" maskUnits="userSpaceOnUse" x="0" y="0" width="20" height="20">
<rect width="20" height="20" fill="#D9D9D9"/>
</mask>
<g mask="url(#mask0_328_966)">
<path d="M5.00065 15.8334H7.50065V11.6667C7.50065 11.4306 7.58051 11.2327 7.74023 11.073C7.89996 10.9133 8.09787 10.8334 8.33398 10.8334H11.6673C11.9034 10.8334 12.1013 10.9133 12.2611 11.073C12.4208 11.2327 12.5007 11.4306 12.5007 11.6667V15.8334H15.0007V8.33341L10.0007 4.58341L5.00065 8.33341V15.8334ZM3.33398 15.8334V8.33341C3.33398 8.06953 3.39301 7.81953 3.51107 7.58341C3.62912 7.3473 3.79232 7.15286 4.00065 7.00008L9.00065 3.25008C9.29232 3.02786 9.62565 2.91675 10.0007 2.91675C10.3757 2.91675 10.709 3.02786 11.0007 3.25008L16.0007 7.00008C16.209 7.15286 16.3722 7.3473 16.4902 7.58341C16.6083 7.81953 16.6673 8.06953 16.6673 8.33341V15.8334C16.6673 16.2917 16.5041 16.6841 16.1777 17.0105C15.8513 17.3369 15.459 17.5001 15.0007 17.5001H11.6673C11.4312 17.5001 11.2333 17.4202 11.0736 17.2605C10.9138 17.1008 10.834 16.9029 10.834 16.6667V12.5001H9.16732V16.6667C9.16732 16.9029 9.08746 17.1008 8.92773 17.2605C8.76801 17.4202 8.5701 17.5001 8.33398 17.5001H5.00065C4.54232 17.5001 4.14996 17.3369 3.82357 17.0105C3.49718 16.6841 3.33398 16.2917 3.33398 15.8334Z" fill="#535353"/>
</g>
</svg>
