<svg width="16" height="16" viewBox="0 0 16 16" fill="none" xmlns="http://www.w3.org/2000/svg">
<path d="M7.25 11.749H8.75V7.24902H7.25V11.749ZM8 5.74902C8.2125 5.74902 8.39062 5.67715 8.53438 5.5334C8.67812 5.38965 8.75 5.21152 8.75 4.99902C8.75 4.78652 8.67812 4.6084 8.53438 4.46465C8.39062 4.3209 8.2125 4.24902 8 4.24902C7.7875 4.24902 7.60937 4.3209 7.46562 4.46465C7.32187 4.6084 7.25 4.78652 7.25 4.99902C7.25 5.21152 7.32187 5.38965 7.46562 5.5334C7.60937 5.67715 7.7875 5.74902 8 5.74902ZM8 15.499C6.9625 15.499 5.9875 15.3021 5.075 14.9084C4.1625 14.5146 3.36875 13.9803 2.69375 13.3053C2.01875 12.6303 1.48437 11.8365 1.09062 10.924C0.696875 10.0115 0.5 9.03652 0.5 7.99902C0.5 6.96152 0.696875 5.98652 1.09062 5.07402C1.48437 4.16152 2.01875 3.36777 2.69375 2.69277C3.36875 2.01777 4.1625 1.4834 5.075 1.08965C5.9875 0.695898 6.9625 0.499023 8 0.499023C9.0375 0.499023 10.0125 0.695898 10.925 1.08965C11.8375 1.4834 12.6312 2.01777 13.3062 2.69277C13.9812 3.36777 14.5156 4.16152 14.9094 5.07402C15.3031 5.98652 15.5 6.96152 15.5 7.99902C15.5 9.03652 15.3031 10.0115 14.9094 10.924C14.5156 11.8365 13.9812 12.6303 13.3062 13.3053C12.6312 13.9803 11.8375 14.5146 10.925 14.9084C10.0125 15.3021 9.0375 15.499 8 15.499Z" fill="#818181"/>
</svg>
