<svg width="17" height="17" viewBox="0 0 17 17" fill="none" xmlns="http://www.w3.org/2000/svg">
<mask id="mask0_631_13096" style="mask-type:alpha" maskUnits="userSpaceOnUse" x="0" y="0" width="17" height="17">
<rect width="17" height="17" fill="#D9D9D9"/>
</mask>
<g mask="url(#mask0_631_13096)">
<path d="M4.2487 15.5835C3.85911 15.5835 3.52561 15.4448 3.24818 15.1673C2.97075 14.8899 2.83203 14.5564 2.83203 14.1668V7.0835C2.83203 6.69391 2.97075 6.36041 3.24818 6.08298C3.52561 5.80554 3.85911 5.66683 4.2487 5.66683H4.95703V4.25016C4.95703 3.2703 5.30234 2.43506 5.99297 1.74443C6.68359 1.05381 7.51884 0.708496 8.4987 0.708496C9.47856 0.708496 10.3138 1.05381 11.0044 1.74443C11.6951 2.43506 12.0404 3.2703 12.0404 4.25016V5.66683H12.7487C13.1383 5.66683 13.4718 5.80554 13.7492 6.08298C14.0267 6.36041 14.1654 6.69391 14.1654 7.0835V14.1668C14.1654 14.5564 14.0267 14.8899 13.7492 15.1673C13.4718 15.4448 13.1383 15.5835 12.7487 15.5835H4.2487ZM4.2487 14.1668H12.7487V7.0835H4.2487V14.1668ZM8.4987 12.0418C8.88828 12.0418 9.22179 11.9031 9.49922 11.6257C9.77665 11.3483 9.91537 11.0147 9.91537 10.6252C9.91537 10.2356 9.77665 9.90207 9.49922 9.62464C9.22179 9.34721 8.88828 9.2085 8.4987 9.2085C8.10911 9.2085 7.77561 9.34721 7.49818 9.62464C7.22075 9.90207 7.08203 10.2356 7.08203 10.6252C7.08203 11.0147 7.22075 11.3483 7.49818 11.6257C7.77561 11.9031 8.10911 12.0418 8.4987 12.0418ZM6.3737 5.66683H10.6237V4.25016C10.6237 3.65988 10.4171 3.15815 10.0039 2.74495C9.59071 2.33176 9.08898 2.12516 8.4987 2.12516C7.90842 2.12516 7.40668 2.33176 6.99349 2.74495C6.5803 3.15815 6.3737 3.65988 6.3737 4.25016V5.66683Z" fill="#818181"/>
</g>
</svg>
