<svg width="20" height="20" viewBox="0 0 20 20" fill="none" xmlns="http://www.w3.org/2000/svg">
<mask id="mask0_328_1000" style="mask-type:alpha" maskUnits="userSpaceOnUse" x="0" y="0" width="20" height="20">
<rect width="20" height="20" fill="#D9D9D9"/>
</mask>
<g mask="url(#mask0_328_1000)">
<path d="M9.02253 18.3334C8.64753 18.3334 8.32461 18.2084 8.05378 17.9584C7.78294 17.7084 7.61975 17.4029 7.56419 17.0417L7.37669 15.6667C7.19614 15.5973 7.026 15.514 6.86628 15.4167C6.70655 15.3195 6.5503 15.2154 6.39753 15.1042L5.10586 15.6459C4.75864 15.7987 4.41142 15.8126 4.06419 15.6876C3.71697 15.5626 3.44614 15.3404 3.25169 15.0209L2.27253 13.3126C2.07808 12.9931 2.02253 12.6529 2.10586 12.2917C2.18919 11.9306 2.37669 11.632 2.66836 11.3959L3.77253 10.5626C3.75864 10.4654 3.75169 10.3716 3.75169 10.2813V9.71883C3.75169 9.62855 3.75864 9.5348 3.77253 9.43758L2.66836 8.60425C2.37669 8.36814 2.18919 8.06953 2.10586 7.70842C2.02253 7.3473 2.07808 7.00703 2.27253 6.68758L3.25169 4.97925C3.44614 4.6598 3.71697 4.43758 4.06419 4.31258C4.41142 4.18758 4.75864 4.20147 5.10586 4.35425L6.39753 4.89591C6.5503 4.7848 6.71003 4.68064 6.87669 4.58341C7.04336 4.48619 7.21003 4.40286 7.37669 4.33341L7.56419 2.95841C7.61975 2.5973 7.78294 2.29175 8.05378 2.04175C8.32461 1.79175 8.64753 1.66675 9.02253 1.66675H10.9809C11.3559 1.66675 11.6788 1.79175 11.9496 2.04175C12.2204 2.29175 12.3836 2.5973 12.4392 2.95841L12.6267 4.33341C12.8072 4.40286 12.9774 4.48619 13.1371 4.58341C13.2968 4.68064 13.4531 4.7848 13.6059 4.89591L14.8975 4.35425C15.2447 4.20147 15.592 4.18758 15.9392 4.31258C16.2864 4.43758 16.5573 4.6598 16.7517 4.97925L17.7309 6.68758C17.9253 7.00703 17.9809 7.3473 17.8975 7.70842C17.8142 8.06953 17.6267 8.36814 17.335 8.60425L16.2309 9.43758C16.2448 9.5348 16.2517 9.62855 16.2517 9.71883V10.2813C16.2517 10.3716 16.2378 10.4654 16.21 10.5626L17.3142 11.3959C17.6059 11.632 17.7934 11.9306 17.8767 12.2917C17.96 12.6529 17.9045 12.9931 17.71 13.3126L16.71 15.0209C16.5156 15.3404 16.2447 15.5626 15.8975 15.6876C15.5503 15.8126 15.2031 15.7987 14.8559 15.6459L13.6059 15.1042C13.4531 15.2154 13.2934 15.3195 13.1267 15.4167C12.96 15.514 12.7934 15.5973 12.6267 15.6667L12.4392 17.0417C12.3836 17.4029 12.2204 17.7084 11.9496 17.9584C11.6788 18.2084 11.3559 18.3334 10.9809 18.3334H9.02253ZM9.16836 16.6667H10.8142L11.1059 14.4584C11.5364 14.3473 11.9357 14.1841 12.3038 13.9688C12.6718 13.7536 13.0086 13.4931 13.3142 13.1876L15.3767 14.0417L16.1892 12.6251L14.3975 11.2709C14.467 11.0765 14.5156 10.8716 14.5434 10.6563C14.5711 10.4411 14.585 10.2223 14.585 10.0001C14.585 9.77786 14.5711 9.55911 14.5434 9.34383C14.5156 9.12855 14.467 8.92369 14.3975 8.72925L16.1892 7.37508L15.3767 5.95842L13.3142 6.83342C13.0086 6.51397 12.6718 6.24661 12.3038 6.03133C11.9357 5.81605 11.5364 5.65286 11.1059 5.54175L10.835 3.33341H9.18919L8.89753 5.54175C8.46697 5.65286 8.06767 5.81605 7.69961 6.03133C7.33155 6.24661 6.99475 6.50703 6.68919 6.81258L4.62669 5.95842L3.81419 7.37508L5.60586 8.70842C5.53642 8.91675 5.4878 9.12508 5.46003 9.33342C5.43225 9.54175 5.41836 9.76397 5.41836 10.0001C5.41836 10.2223 5.43225 10.4376 5.46003 10.6459C5.4878 10.8542 5.53642 11.0626 5.60586 11.2709L3.81419 12.6251L4.62669 14.0417L6.68919 13.1667C6.99475 13.4862 7.33155 13.7536 7.69961 13.9688C8.06767 14.1841 8.46697 14.3473 8.89753 14.4584L9.16836 16.6667ZM10.0434 12.9167C10.8489 12.9167 11.5364 12.632 12.1059 12.0626C12.6753 11.4931 12.96 10.8056 12.96 10.0001C12.96 9.19453 12.6753 8.50703 12.1059 7.93758C11.5364 7.36814 10.8489 7.08342 10.0434 7.08342C9.22392 7.08342 8.53294 7.36814 7.97044 7.93758C7.40794 8.50703 7.12669 9.19453 7.12669 10.0001C7.12669 10.8056 7.40794 11.4931 7.97044 12.0626C8.53294 12.632 9.22392 12.9167 10.0434 12.9167Z" fill="#535353"/>
</g>
</svg>
