<svg width="28" height="28" viewBox="0 0 28 28" fill="none" xmlns="http://www.w3.org/2000/svg">
<path d="M13.9974 13.9987C17.2191 13.9987 19.8307 11.387 19.8307 8.16537C19.8307 4.9437 17.2191 2.33203 13.9974 2.33203C10.7757 2.33203 8.16406 4.9437 8.16406 8.16537C8.16406 11.387 10.7757 13.9987 13.9974 13.9987Z" stroke="white" stroke-width="1.8"/>
<path d="M19.8321 16.332H20.2428C21.0957 16.3323 21.9192 16.644 22.5585 17.2085C23.1978 17.7731 23.609 18.5517 23.7148 19.398L24.1709 23.0427C24.212 23.371 24.1827 23.7043 24.0851 24.0205C23.9874 24.3366 23.8237 24.6284 23.6047 24.8765C23.3856 25.1245 23.1164 25.3231 22.8147 25.4591C22.5131 25.5951 22.186 25.6654 21.8551 25.6654H6.14243C5.81155 25.6654 5.48443 25.5951 5.18279 25.4591C4.88115 25.3231 4.61189 25.1245 4.39287 24.8765C4.17386 24.6284 4.0101 24.3366 3.91247 24.0205C3.81484 23.7043 3.78557 23.371 3.8266 23.0427L4.2816 19.398C4.38741 18.5513 4.79892 17.7724 5.43874 17.2078C6.07856 16.6431 6.90261 16.3317 7.75594 16.332H8.16543" stroke="white" stroke-width="1.8" stroke-linecap="round" stroke-linejoin="round"/>
</svg>
