<svg width="136" height="45" viewBox="0 0 136 45" fill="none" xmlns="http://www.w3.org/2000/svg">
<rect x="0.5" y="0.5" width="135" height="44" rx="22" stroke="white"/>
<path d="M36.416 16.128C36.576 16.128 36.688 16.176 36.752 16.272C36.816 16.368 36.8267 16.4853 36.784 16.624L33.52 27.664C33.4453 27.888 33.2853 28 33.04 28H31.312C31.0453 28 30.88 27.888 30.816 27.664L28.8 20.672C28.7787 20.576 28.7467 20.528 28.704 20.528C28.672 20.5173 28.64 20.576 28.608 20.704L26.576 27.664C26.512 27.888 26.352 28 26.096 28H24.32C24.064 28 23.8987 27.888 23.824 27.664L20.56 16.624C20.528 16.4853 20.544 16.368 20.608 16.272C20.672 16.176 20.784 16.128 20.944 16.128H22.944C23.0827 16.128 23.1787 16.1547 23.232 16.208C23.296 16.2507 23.3387 16.3147 23.36 16.4L25.424 23.68C25.456 23.7973 25.488 23.856 25.52 23.856C25.552 23.856 25.584 23.8133 25.616 23.728L27.68 16.4C27.7013 16.3147 27.7387 16.2507 27.792 16.208C27.856 16.1547 27.9573 16.128 28.096 16.128H29.808C29.9467 16.128 30.0427 16.1547 30.096 16.208C30.16 16.2507 30.208 16.3147 30.24 16.4L32.336 23.792C32.3573 23.8667 32.3893 23.9093 32.432 23.92C32.4747 23.92 32.5013 23.8827 32.512 23.808L34.544 16.4C34.5653 16.3147 34.608 16.2507 34.672 16.208C34.736 16.1547 34.8373 16.128 34.976 16.128H36.416ZM41.7525 27.184C41.4218 27.4827 41.0485 27.7227 40.6325 27.904C40.2272 28.0747 39.7578 28.16 39.2245 28.16C38.4138 28.16 37.7738 27.9413 37.3045 27.504C36.8458 27.0667 36.6165 26.5067 36.6165 25.824C36.6165 25.2267 36.8032 24.704 37.1765 24.256C37.5498 23.808 38.0832 23.4613 38.7765 23.216C39.4698 22.96 40.2965 22.8213 41.2565 22.8L41.8165 22.752C41.8805 22.752 41.9392 22.736 41.9925 22.704C42.0458 22.672 42.0725 22.6133 42.0725 22.528V22.192C42.0725 21.7867 41.9552 21.472 41.7205 21.248C41.4858 21.0133 41.1498 20.896 40.7125 20.896C40.3925 20.896 40.0832 20.9707 39.7845 21.12C39.4965 21.2587 39.2512 21.504 39.0485 21.856C39.0165 21.9307 38.9792 21.9787 38.9365 22C38.8938 22.0213 38.8138 22.0213 38.6965 22L37.0965 21.632C37.0325 21.6107 36.9845 21.5787 36.9525 21.536C36.9312 21.4827 36.9525 21.376 37.0165 21.216C37.2832 20.5867 37.7418 20.1227 38.3925 19.824C39.0538 19.5147 39.8645 19.36 40.8245 19.36C41.7098 19.36 42.4138 19.472 42.9365 19.696C43.4592 19.92 43.8378 20.2347 44.0725 20.64C44.3072 21.0347 44.4245 21.4987 44.4245 22.032V27.648C44.4245 27.776 44.4032 27.8667 44.3605 27.92C44.3178 27.9733 44.2378 28 44.1205 28H42.4725C42.3552 28 42.2698 27.9573 42.2165 27.872C42.1738 27.7867 42.1472 27.68 42.1365 27.552L42.1045 27.2C42.0832 27.008 41.9658 27.0027 41.7525 27.184ZM42.0725 24.224C42.0725 24.0427 41.9925 23.952 41.8325 23.952L41.3845 23.984C41.1072 23.9947 40.8298 24.0373 40.5525 24.112C40.2752 24.176 40.0245 24.272 39.8005 24.4C39.5765 24.5173 39.3898 24.672 39.2405 24.864C39.1018 25.0453 39.0325 25.2587 39.0325 25.504C39.0325 25.824 39.1445 26.08 39.3685 26.272C39.5925 26.4533 39.9018 26.544 40.2965 26.544C40.5632 26.544 40.7978 26.5013 41.0005 26.416C41.2138 26.3307 41.3952 26.2293 41.5445 26.112C41.7045 25.9733 41.8325 25.8347 41.9285 25.696C42.0245 25.5573 42.0725 25.4133 42.0725 25.264V24.224ZM46.5441 28C46.3201 28 46.2081 27.8933 46.2081 27.68V19.824C46.2081 19.6213 46.2935 19.52 46.4641 19.52H48.4001C48.5601 19.52 48.6401 19.6107 48.6401 19.792V20.576C48.6401 20.64 48.6561 20.6827 48.6881 20.704C48.7201 20.7253 48.7681 20.704 48.8321 20.64C49.1095 20.384 49.3868 20.16 49.6641 19.968C49.9415 19.776 50.2348 19.6267 50.5441 19.52C50.8535 19.4133 51.1841 19.36 51.5361 19.36C52.3148 19.36 52.9281 19.5893 53.3761 20.048C53.8348 20.5067 54.0641 21.12 54.0641 21.888V27.616C54.0641 27.872 53.9361 28 53.6801 28H51.9041C51.7975 28 51.7175 27.9787 51.6641 27.936C51.6215 27.8827 51.6001 27.7973 51.6001 27.68V22.272C51.6001 21.9093 51.4988 21.632 51.2961 21.44C51.1041 21.2373 50.8161 21.136 50.4321 21.136C50.2081 21.136 50.0001 21.1733 49.8081 21.248C49.6161 21.3227 49.4295 21.4347 49.2481 21.584C49.0668 21.7227 48.8748 21.904 48.6721 22.128V27.632C48.6721 27.8773 48.5335 28 48.2561 28H46.5441ZM56.0754 28C55.8514 28 55.7394 27.8933 55.7394 27.68V19.824C55.7394 19.6213 55.8247 19.52 55.9954 19.52H57.9314C58.0914 19.52 58.1714 19.6107 58.1714 19.792V20.576C58.1714 20.64 58.1874 20.6827 58.2194 20.704C58.2514 20.7253 58.2994 20.704 58.3634 20.64C58.6407 20.384 58.918 20.16 59.1954 19.968C59.4727 19.776 59.766 19.6267 60.0754 19.52C60.3847 19.4133 60.7154 19.36 61.0674 19.36C61.846 19.36 62.4594 19.5893 62.9074 20.048C63.366 20.5067 63.5954 21.12 63.5954 21.888V27.616C63.5954 27.872 63.4674 28 63.2114 28H61.4354C61.3287 28 61.2487 27.9787 61.1954 27.936C61.1527 27.8827 61.1314 27.7973 61.1314 27.68V22.272C61.1314 21.9093 61.03 21.632 60.8274 21.44C60.6354 21.2373 60.3474 21.136 59.9634 21.136C59.7394 21.136 59.5314 21.1733 59.3394 21.248C59.1474 21.3227 58.9607 21.4347 58.7794 21.584C58.598 21.7227 58.406 21.904 58.2034 22.128V27.632C58.2034 27.8773 58.0647 28 57.7874 28H56.0754ZM69.8306 27.184C69.5 27.4827 69.1266 27.7227 68.7106 27.904C68.3053 28.0747 67.836 28.16 67.3026 28.16C66.492 28.16 65.852 27.9413 65.3826 27.504C64.924 27.0667 64.6946 26.5067 64.6946 25.824C64.6946 25.2267 64.8813 24.704 65.2546 24.256C65.628 23.808 66.1613 23.4613 66.8546 23.216C67.548 22.96 68.3746 22.8213 69.3346 22.8L69.8946 22.752C69.9586 22.752 70.0173 22.736 70.0706 22.704C70.124 22.672 70.1506 22.6133 70.1506 22.528V22.192C70.1506 21.7867 70.0333 21.472 69.7986 21.248C69.564 21.0133 69.228 20.896 68.7906 20.896C68.4706 20.896 68.1613 20.9707 67.8626 21.12C67.5746 21.2587 67.3293 21.504 67.1266 21.856C67.0946 21.9307 67.0573 21.9787 67.0146 22C66.972 22.0213 66.892 22.0213 66.7746 22L65.1746 21.632C65.1106 21.6107 65.0626 21.5787 65.0306 21.536C65.0093 21.4827 65.0306 21.376 65.0946 21.216C65.3613 20.5867 65.82 20.1227 66.4706 19.824C67.132 19.5147 67.9426 19.36 68.9026 19.36C69.788 19.36 70.492 19.472 71.0146 19.696C71.5373 19.92 71.916 20.2347 72.1506 20.64C72.3853 21.0347 72.5026 21.4987 72.5026 22.032V27.648C72.5026 27.776 72.4813 27.8667 72.4386 27.92C72.396 27.9733 72.316 28 72.1986 28H70.5506C70.4333 28 70.348 27.9573 70.2946 27.872C70.252 27.7867 70.2253 27.68 70.2146 27.552L70.1826 27.2C70.1613 27.008 70.044 27.0027 69.8306 27.184ZM70.1506 24.224C70.1506 24.0427 70.0706 23.952 69.9106 23.952L69.4626 23.984C69.1853 23.9947 68.908 24.0373 68.6306 24.112C68.3533 24.176 68.1026 24.272 67.8786 24.4C67.6546 24.5173 67.468 24.672 67.3186 24.864C67.18 25.0453 67.1106 25.2587 67.1106 25.504C67.1106 25.824 67.2226 26.08 67.4466 26.272C67.6706 26.4533 67.98 26.544 68.3746 26.544C68.6413 26.544 68.876 26.5013 69.0786 26.416C69.292 26.3307 69.4733 26.2293 69.6226 26.112C69.7826 25.9733 69.9106 25.8347 70.0066 25.696C70.1026 25.5573 70.1506 25.4133 70.1506 25.264V24.224ZM74.8303 28C74.7343 28 74.6596 27.9733 74.6063 27.92C74.5529 27.8667 74.5263 27.7973 74.5263 27.712V16.464C74.5263 16.368 74.5529 16.288 74.6063 16.224C74.6703 16.16 74.7503 16.128 74.8463 16.128H79.1823C80.7503 16.128 81.9449 16.3947 82.7663 16.928C83.5983 17.4507 84.0143 18.224 84.0143 19.248C84.0143 19.8347 83.8543 20.3307 83.5343 20.736C83.2249 21.1413 82.6863 21.5093 81.9183 21.84C81.8863 21.8507 81.8703 21.872 81.8703 21.904C81.8703 21.936 81.8863 21.9573 81.9183 21.968C82.7609 22.2453 83.3689 22.608 83.7423 23.056C84.1156 23.4933 84.3023 24.0693 84.3023 24.784C84.3023 25.872 83.8916 26.6827 83.0703 27.216C82.2489 27.7387 81.0223 28 79.3903 28H74.8303ZM79.3103 26.112C80.0036 26.112 80.5209 25.968 80.8623 25.68C81.2143 25.392 81.3903 25.008 81.3903 24.528C81.3903 24.1867 81.3049 23.904 81.1343 23.68C80.9636 23.4453 80.7289 23.2693 80.4303 23.152C80.1423 23.0347 79.8063 22.976 79.4223 22.976H77.6302C77.4276 22.976 77.3263 23.0667 77.3263 23.248V25.808C77.3263 26.0107 77.4009 26.112 77.5503 26.112H79.3103ZM79.4223 21.024C79.6676 21.024 79.8969 20.9973 80.1103 20.944C80.3343 20.8907 80.5263 20.8 80.6863 20.672C80.8569 20.544 80.9903 20.3893 81.0863 20.208C81.1929 20.0267 81.2463 19.8133 81.2463 19.568C81.2463 19.0667 81.0596 18.6827 80.6863 18.416C80.3236 18.1493 79.8543 18.016 79.2783 18.016H77.6302C77.4276 18.016 77.3263 18.1067 77.3263 18.288V20.736C77.3263 20.928 77.4009 21.024 77.5503 21.024H79.4223ZM88.0088 24.48C88.0088 24.8747 88.0994 25.2267 88.2808 25.536C88.4728 25.8347 88.7234 26.0693 89.0328 26.24C89.3528 26.4 89.7101 26.48 90.1048 26.48C90.4888 26.48 90.8408 26.4 91.1608 26.24C91.4914 26.0693 91.8221 25.792 92.1528 25.408C92.1954 25.3653 92.2328 25.344 92.2648 25.344C92.2968 25.3333 92.3554 25.3493 92.4408 25.392L93.5928 25.872C93.7421 25.936 93.7581 26.0427 93.6408 26.192C93.2994 26.6827 92.9421 27.072 92.5688 27.36C92.1954 27.648 91.7794 27.856 91.3208 27.984C90.8728 28.1013 90.3661 28.16 89.8008 28.16C88.9688 28.16 88.2274 27.9787 87.5768 27.616C86.9261 27.2533 86.4088 26.752 86.0247 26.112C85.6514 25.4613 85.4648 24.72 85.4648 23.888C85.4648 22.9707 85.6568 22.176 86.0408 21.504C86.4354 20.8213 86.9581 20.2933 87.6088 19.92C88.2594 19.5467 88.9741 19.36 89.7528 19.36C90.5741 19.36 91.2941 19.5413 91.9128 19.904C92.5314 20.256 93.0168 20.7627 93.3688 21.424C93.7314 22.0853 93.9128 22.8907 93.9128 23.84C93.9128 23.9573 93.9021 24.048 93.8808 24.112C93.8594 24.176 93.7794 24.2133 93.6408 24.224H88.2008C88.1368 24.224 88.0888 24.2453 88.0568 24.288C88.0248 24.3307 88.0088 24.3947 88.0088 24.48ZM91.2248 22.88C91.3421 22.88 91.4168 22.8693 91.4488 22.848C91.4808 22.816 91.4968 22.752 91.4968 22.656C91.4968 22.3893 91.4328 22.1173 91.3048 21.84C91.1874 21.5627 91.0061 21.3333 90.7608 21.152C90.5261 20.96 90.2221 20.864 89.8488 20.864C89.4968 20.864 89.1821 20.9493 88.9048 21.12C88.6274 21.2907 88.4141 21.5307 88.2648 21.84C88.1154 22.1387 88.0408 22.48 88.0408 22.864L91.2248 22.88ZM98.4086 28C98.3126 28 98.2433 27.9573 98.2006 27.872C98.158 27.7867 98.158 27.6747 98.2006 27.536L102.185 16.448C102.227 16.3307 102.275 16.2507 102.329 16.208C102.382 16.1547 102.473 16.128 102.601 16.128H105.001C105.235 16.128 105.395 16.2453 105.481 16.48L109.433 27.568C109.465 27.6533 109.465 27.7493 109.433 27.856C109.401 27.952 109.337 28 109.241 28H106.889C106.729 28 106.627 27.9253 106.585 27.776L105.753 25.44C105.742 25.3867 105.721 25.344 105.689 25.312C105.667 25.28 105.619 25.264 105.545 25.264H101.641C101.534 25.264 101.465 25.3173 101.433 25.424L100.585 27.792C100.563 27.856 100.526 27.9093 100.473 27.952C100.43 27.984 100.355 28 100.249 28H98.4086ZM104.889 23.136C105.038 23.136 105.086 23.0453 105.033 22.864L103.689 19.12C103.657 19.056 103.619 19.024 103.577 19.024C103.545 19.024 103.513 19.0613 103.481 19.136L102.121 22.864C102.046 23.0453 102.094 23.136 102.265 23.136H104.889ZM113.648 16.128C113.819 16.128 113.904 16.224 113.904 16.416V27.616C113.904 27.7547 113.867 27.856 113.792 27.92C113.728 27.9733 113.622 28 113.472 28H111.456C111.318 28 111.222 27.9733 111.168 27.92C111.126 27.8667 111.104 27.7813 111.104 27.664V16.432C111.104 16.2293 111.19 16.128 111.36 16.128H113.648Z" fill="white"/>
</svg>
