<svg width="22" height="27" viewBox="0 0 22 27" fill="none" xmlns="http://www.w3.org/2000/svg">
<path d="M1.71875 22.9669C1.42656 22.9669 1.1817 22.8682 0.984156 22.6706C0.786386 22.4728 0.6875 22.2277 0.6875 21.9353C0.6875 21.6431 0.786386 21.3983 0.984156 21.2007C1.1817 21.0034 1.42656 20.9048 1.71875 20.9048H3.17316V10.6449C3.17316 8.79571 3.7439 7.16072 4.88538 5.73989C6.02663 4.31905 7.49192 3.41029 9.28125 3.01361V2.15698C9.28125 1.67963 9.4482 1.27377 9.78209 0.939421C10.116 0.605296 10.5214 0.438232 10.9983 0.438232C11.4754 0.438232 11.8814 0.605296 12.2162 0.939421C12.5512 1.27377 12.7188 1.67963 12.7188 2.15698V3.01361C14.5081 3.41029 15.9734 4.31905 17.1146 5.73989C18.2561 7.16072 18.8268 8.79571 18.8268 10.6449V20.9048H20.2812C20.5734 20.9048 20.8183 21.0035 21.0158 21.2011C21.2136 21.3988 21.3125 21.6439 21.3125 21.9364C21.3125 22.2285 21.2136 22.4734 21.0158 22.671C20.8183 22.8683 20.5734 22.9669 20.2812 22.9669H1.71875ZM10.9976 26.8276C10.3135 26.8276 9.7287 26.5842 9.24309 26.0975C8.75726 25.6107 8.51434 25.0255 8.51434 24.3419H13.4857C13.4857 25.0278 13.2421 25.6136 12.7548 26.0992C12.2676 26.5848 11.6819 26.8276 10.9976 26.8276ZM5.23566 20.9048H16.7643V10.6449C16.7643 9.05307 16.2016 7.69445 15.0762 6.56901C13.9505 5.44335 12.5918 4.88051 11 4.88051C9.40821 4.88051 8.04948 5.44335 6.92381 6.56901C5.79838 7.69445 5.23566 9.05307 5.23566 10.6449V20.9048Z" fill="white"/>
</svg>
