<svg width="28" height="27" viewBox="0 0 28 27" fill="none" xmlns="http://www.w3.org/2000/svg">
<rect x="0.5" width="27" height="27" rx="13.5" fill="white"/>
<path d="M18.698 13.322C18.698 13.5567 18.5513 13.674 18.258 13.674L9.106 13.696C8.98867 13.696 8.90067 13.674 8.842 13.63C8.798 13.5713 8.776 13.4833 8.776 13.366V12.222C8.776 12.0167 8.84933 11.914 8.996 11.914H18.434C18.61 11.914 18.698 11.9947 18.698 12.156V13.322ZM13.22 17.744C12.9707 17.744 12.846 17.6047 12.846 17.326V8.174C12.846 8.042 12.868 7.954 12.912 7.91C12.956 7.85133 13.0367 7.822 13.154 7.822H14.32C14.5107 7.822 14.606 7.90267 14.606 8.064L14.628 17.502C14.628 17.6633 14.54 17.744 14.364 17.744H13.22Z" fill="url(#paint0_linear_445_12637)"/>
<defs>
<linearGradient id="paint0_linear_445_12637" x1="8.02907" y1="7.45001" x2="20.6981" y2="7.67159" gradientUnits="userSpaceOnUse">
<stop stop-color="#FFA05C"/>
<stop offset="1" stop-color="#FF804D"/>
</linearGradient>
</defs>
</svg>
