<svg width="19" height="19" viewBox="0 0 19 19" fill="none" xmlns="http://www.w3.org/2000/svg">
<path d="M7.25095 4.32045C7.71606 2.95934 9.59673 2.91812 10.1482 4.19678L10.1948 4.32123L10.8225 6.15678C10.9663 6.57774 11.1988 6.96296 11.5042 7.28645C11.8095 7.60993 12.1807 7.86417 12.5927 8.03201L12.7615 8.09501L14.5971 8.72189C15.9582 9.18701 15.9994 11.0677 14.7215 11.6191L14.5971 11.6658L12.7615 12.2935C12.3404 12.4372 11.955 12.6696 11.6314 12.975C11.3078 13.2804 11.0534 13.6516 10.8855 14.0637L10.8225 14.2317L10.1956 16.068C9.7305 17.4291 7.84984 17.4703 7.29917 16.1924L7.25095 16.068L6.62406 14.2324C6.48031 13.8113 6.2479 13.426 5.94252 13.1024C5.63714 12.7787 5.2659 12.5244 4.85384 12.3565L4.68584 12.2935L2.85028 11.6666C1.48839 11.2014 1.44717 9.32078 2.72584 8.77012L2.85028 8.72189L4.68584 8.09501C5.1068 7.95116 5.49201 7.71871 5.8155 7.41334C6.13899 7.10796 6.39322 6.73676 6.56106 6.32478L6.62406 6.15678L7.25095 4.32045ZM8.72328 4.82289L8.09639 6.65845C7.87736 7.30035 7.52104 7.8868 7.05225 8.37695C6.58346 8.8671 6.01346 9.24917 5.38195 9.49656L5.1875 9.56734L3.35195 10.1942L5.1875 10.8211C5.8294 11.0401 6.41585 11.3965 6.906 11.8653C7.39615 12.334 7.77822 12.904 8.02561 13.5356L8.09639 13.73L8.72328 15.5656L9.35017 13.73C9.5692 13.0881 9.92552 12.5017 10.3943 12.0115C10.8631 11.5214 11.4331 11.1393 12.0646 10.8919L12.2591 10.8219L14.0946 10.1942L12.2591 9.56734C11.6172 9.34831 11.0307 8.99199 10.5406 8.5232C10.0504 8.05441 9.66834 7.48441 9.42095 6.85289L9.35095 6.65845L8.72328 4.82289ZM14.9455 1.63867C15.091 1.63867 15.2336 1.67949 15.3571 1.75648C15.4805 1.83348 15.5799 1.94356 15.6439 2.07423L15.6813 2.16523L15.9535 2.96323L16.7523 3.23545C16.8981 3.28499 17.0259 3.37671 17.1196 3.49897C17.2132 3.62124 17.2684 3.76855 17.2783 3.92224C17.2881 4.07593 17.2521 4.22908 17.1748 4.36228C17.0975 4.49548 16.9824 4.60274 16.8441 4.67045L16.7523 4.70778L15.9543 4.98001L15.6821 5.77878C15.6324 5.92456 15.5406 6.05233 15.4183 6.14589C15.296 6.23945 15.1487 6.2946 14.995 6.30434C14.8413 6.31409 14.6882 6.278 14.555 6.20063C14.4219 6.12327 14.3147 6.00812 14.2471 5.86978L14.2097 5.77878L13.9375 4.98078L13.1387 4.70856C12.9929 4.65902 12.8651 4.5673 12.7714 4.44504C12.6778 4.32277 12.6226 4.17546 12.6127 4.02177C12.6029 3.86808 12.6389 3.71493 12.7162 3.58173C12.7935 3.44853 12.9086 3.34127 13.0469 3.27356L13.1387 3.23623L13.9367 2.96401L14.2089 2.16523C14.2614 2.01156 14.3606 1.87816 14.4927 1.78373C14.6248 1.6893 14.7831 1.63857 14.9455 1.63867Z" fill="white"/>
</svg>
