<svg width="12" height="9" viewBox="0 0 12 9" fill="none" xmlns="http://www.w3.org/2000/svg">
<path d="M3.99856 6.45578L10.0716 0.373027C10.2096 0.234694 10.3851 0.165527 10.5981 0.165527C10.8112 0.165527 10.9871 0.234528 11.1256 0.372528C11.2639 0.510528 11.3331 0.68611 11.3331 0.899277C11.3331 1.11261 11.2639 1.28853 11.1256 1.42703L4.63131 7.91153C4.45048 8.09236 4.23956 8.18278 3.99856 8.18278C3.75756 8.18278 3.54665 8.09236 3.36581 7.91153L0.871563 5.42703C0.73323 5.28903 0.664062 5.11353 0.664062 4.90053C0.664062 4.68736 0.733062 4.51153 0.871062 4.37303C1.00906 4.23469 1.18465 4.16553 1.39781 4.16553C1.61115 4.16553 1.78706 4.23469 1.92556 4.37303L3.99856 6.45578Z" fill="#C7C7C7"/>
</svg>
