<svg width="16" height="17" viewBox="0 0 16 17" fill="none" xmlns="http://www.w3.org/2000/svg">
<mask id="mask0_2034_9140" style="mask-type:alpha" maskUnits="userSpaceOnUse" x="0" y="0" width="16" height="17">
<rect y="0.5" width="16" height="16" fill="#D9D9D9"/>
</mask>
<g mask="url(#mask0_2034_9140)">
<path d="M7.20052 8.50011L9.80052 11.1001C9.92274 11.2223 9.98385 11.3779 9.98385 11.5668C9.98385 11.7557 9.92274 11.9112 9.80052 12.0334C9.6783 12.1557 9.52274 12.2168 9.33385 12.2168C9.14497 12.2168 8.98941 12.1557 8.86719 12.0334L5.80052 8.96678C5.73385 8.90011 5.68663 8.82789 5.65885 8.75011C5.63108 8.67234 5.61719 8.589 5.61719 8.50011C5.61719 8.41123 5.63108 8.32789 5.65885 8.25011C5.68663 8.17234 5.73385 8.10011 5.80052 8.03345L8.86719 4.96678C8.98941 4.84456 9.14497 4.78345 9.33385 4.78345C9.52274 4.78345 9.6783 4.84456 9.80052 4.96678C9.92274 5.089 9.98385 5.24456 9.98385 5.43345C9.98385 5.62234 9.92274 5.77789 9.80052 5.90011L7.20052 8.50011Z" fill="#818181"/>
</g>
</svg>
