<svg width="10" height="10" viewBox="0 0 10 10" fill="none" xmlns="http://www.w3.org/2000/svg">
<path d="M4.99868 5.56355L1.75242 8.80955C1.60759 8.95455 1.43201 9.02538 1.22567 9.02205C1.01917 9.01888 0.843508 8.94488 0.698675 8.80005C0.553842 8.65521 0.481425 8.47796 0.481425 8.2683C0.481425 8.05863 0.553842 7.88138 0.698675 7.73655L3.93517 4.50005L0.689175 1.2788C0.544175 1.13396 0.473342 0.956714 0.476675 0.747047C0.479842 0.537547 0.553842 0.360381 0.698675 0.215547C0.843508 0.0705472 1.02076 -0.00195312 1.23042 -0.00195312C1.44009 -0.00195312 1.61734 0.0705472 1.76218 0.215547L4.99868 3.46155L8.21992 0.215547C8.36476 0.0705472 8.54034 -0.00195312 8.74667 -0.00195312C8.95317 -0.00195312 9.12884 0.0705472 9.27367 0.215547C9.42884 0.370547 9.50642 0.550297 9.50642 0.754797C9.50642 0.959297 9.42884 1.13396 9.27367 1.2788L6.03717 4.50005L9.28318 7.7463C9.42818 7.89113 9.50068 8.06672 9.50068 8.27305C9.50068 8.47955 9.42818 8.65521 9.28318 8.80005C9.12818 8.95521 8.94843 9.0328 8.74393 9.0328C8.53942 9.0328 8.36476 8.95521 8.21992 8.80005L4.99868 5.56355Z" fill="#454545"/>
</svg>
