<svg width="20" height="20" viewBox="0 0 20 20" fill="none" xmlns="http://www.w3.org/2000/svg">
<mask id="mask0_328_993" style="mask-type:alpha" maskUnits="userSpaceOnUse" x="0" y="0" width="20" height="20">
<rect width="20" height="20" fill="#D9D9D9"/>
</mask>
<g mask="url(#mask0_328_993)">
<path d="M5.58389 17.5C5.18112 17.5 4.82348 17.3681 4.51098 17.1042C4.19848 16.8403 4.00751 16.5069 3.93806 16.1042L2.66723 8.47917C2.62556 8.22917 2.68459 8.00347 2.84431 7.80208C3.00403 7.60069 3.21584 7.5 3.47973 7.5H16.5214C16.7853 7.5 16.9971 7.60069 17.1568 7.80208C17.3165 8.00347 17.3756 8.22917 17.3339 8.47917L16.0631 16.1042C15.9936 16.5069 15.8026 16.8403 15.4901 17.1042C15.1776 17.3681 14.82 17.5 14.4172 17.5H5.58389ZM4.50056 9.16667L5.56306 15.8333H14.4381L15.5006 9.16667H4.50056ZM8.33389 12.5H11.6672C11.9033 12.5 12.1013 12.4201 12.261 12.2604C12.4207 12.1007 12.5006 11.9028 12.5006 11.6667C12.5006 11.4306 12.4207 11.2326 12.261 11.0729C12.1013 10.9132 11.9033 10.8333 11.6672 10.8333H8.33389C8.09778 10.8333 7.89987 10.9132 7.74014 11.0729C7.58042 11.2326 7.50056 11.4306 7.50056 11.6667C7.50056 11.9028 7.58042 12.1007 7.74014 12.2604C7.89987 12.4201 8.09778 12.5 8.33389 12.5ZM5.00056 6.66667C4.76445 6.66667 4.56653 6.58681 4.40681 6.42708C4.24709 6.26736 4.16723 6.06944 4.16723 5.83333C4.16723 5.59722 4.24709 5.39931 4.40681 5.23958C4.56653 5.07986 4.76445 5 5.00056 5H15.0006C15.2367 5 15.4346 5.07986 15.5943 5.23958C15.754 5.39931 15.8339 5.59722 15.8339 5.83333C15.8339 6.06944 15.754 6.26736 15.5943 6.42708C15.4346 6.58681 15.2367 6.66667 15.0006 6.66667H5.00056ZM6.66723 4.16667C6.43112 4.16667 6.2332 4.08681 6.07348 3.92708C5.91376 3.76736 5.83389 3.56944 5.83389 3.33333C5.83389 3.09722 5.91376 2.89931 6.07348 2.73958C6.2332 2.57986 6.43112 2.5 6.66723 2.5H13.3339C13.57 2.5 13.7679 2.57986 13.9276 2.73958C14.0874 2.89931 14.1672 3.09722 14.1672 3.33333C14.1672 3.56944 14.0874 3.76736 13.9276 3.92708C13.7679 4.08681 13.57 4.16667 13.3339 4.16667H6.66723Z" fill="#535353"/>
</g>
</svg>
