<svg width="27" height="27" viewBox="0 0 27 27" fill="none" xmlns="http://www.w3.org/2000/svg">
<rect width="27" height="27" rx="13.5" fill="#2D2B2A"/>
<mask id="mask0_445_12628" style="mask-type:alpha" maskUnits="userSpaceOnUse" x="5" y="5" width="17" height="17">
<rect x="5" y="5" width="17" height="17" fill="#D9D9D9"/>
</mask>
<g mask="url(#mask0_445_12628)">
<path d="M13.5013 20.5834C12.5214 20.5834 11.6006 20.3975 10.7388 20.0256C9.877 19.6537 9.12734 19.149 8.48984 18.5115C7.85234 17.874 7.34766 17.1244 6.97578 16.2626C6.60391 15.4008 6.41797 14.4799 6.41797 13.5001C6.41797 12.5202 6.60391 11.5994 6.97578 10.7376C7.34766 9.87578 7.85234 9.12612 8.48984 8.48862C9.12734 7.85112 9.877 7.34644 10.7388 6.97456C11.6006 6.60269 12.5214 6.41675 13.5013 6.41675C14.4812 6.41675 15.402 6.60269 16.2638 6.97456C17.1256 7.34644 17.8753 7.85112 18.5128 8.48862C19.1503 9.12612 19.6549 9.87578 20.0268 10.7376C20.3987 11.5994 20.5846 12.5202 20.5846 13.5001C20.5846 14.4799 20.3987 15.4008 20.0268 16.2626C19.6549 17.1244 19.1503 17.874 18.5128 18.5115C17.8753 19.149 17.1256 19.6537 16.2638 20.0256C15.402 20.3975 14.4812 20.5834 13.5013 20.5834ZM13.5013 19.1667C14.1388 19.1667 14.7527 19.0634 15.343 18.8569C15.9332 18.6503 16.4763 18.3522 16.9721 17.9626L9.0388 10.0292C8.64922 10.5251 8.35113 11.0681 8.14453 11.6584C7.93793 12.2487 7.83464 12.8626 7.83464 13.5001C7.83464 15.082 8.38359 16.422 9.48151 17.5199C10.5794 18.6178 11.9194 19.1667 13.5013 19.1667ZM17.9638 16.9709C18.3534 16.4751 18.6515 15.932 18.8581 15.3417C19.0647 14.7515 19.168 14.1376 19.168 13.5001C19.168 11.9181 18.619 10.5782 17.5211 9.48029C16.4232 8.38237 15.0832 7.83341 13.5013 7.83341C12.8638 7.83341 12.2499 7.93671 11.6596 8.14331C11.0694 8.34991 10.5263 8.648 10.0305 9.03758L17.9638 16.9709Z" fill="white" fill-opacity="0.3"/>
</g>
</svg>
