<svg width="21" height="22" viewBox="0 0 21 22" fill="none" xmlns="http://www.w3.org/2000/svg">
<mask id="mask0_328_2450" style="mask-type:alpha" maskUnits="userSpaceOnUse" x="0" y="0" width="21" height="22">
<rect y="0.5" width="21" height="21" fill="#D9D9D9"/>
</mask>
<g mask="url(#mask0_328_2450)">
</g>
<path d="M8.24899 5.32094C8.71411 3.95983 10.5948 3.9186 11.1462 5.19727L11.1929 5.32172L11.8206 7.15727C11.9644 7.57823 12.1968 7.96345 12.5022 8.28693C12.8076 8.61042 13.1788 8.86466 13.5908 9.03249L13.7596 9.09549L15.5951 9.72238C16.9562 10.1875 16.9974 12.0682 15.7196 12.6196L15.5951 12.6663L13.7596 13.2939C13.3384 13.4377 12.9531 13.6701 12.6295 13.9755C12.3058 14.2809 12.0515 14.6521 11.8835 15.0642L11.8206 15.2322L11.1937 17.0685C10.7285 18.4296 8.84788 18.4708 8.29722 17.1929L8.24899 17.0685L7.6221 15.2329C7.47836 14.8118 7.24595 14.4265 6.94057 14.1028C6.63519 13.7792 6.26394 13.5249 5.85188 13.3569L5.68388 13.2939L3.84833 12.667C2.48644 12.2019 2.44522 10.3213 3.72388 9.7706L3.84833 9.72238L5.68388 9.09549C6.10484 8.95165 6.49006 8.7192 6.81355 8.41383C7.13703 8.10845 7.39127 7.73725 7.55911 7.32527L7.6221 7.15727L8.24899 5.32094ZM9.72133 5.82338L9.09444 7.65894C8.87541 8.30084 8.51909 8.88729 8.0503 9.37743C7.58151 9.86758 7.01151 10.2497 6.37999 10.497L6.18555 10.5678L4.34999 11.1947L6.18555 11.8216C6.82745 12.0406 7.4139 12.397 7.90405 12.8657C8.3942 13.3345 8.77627 13.9045 9.02366 14.536L9.09444 14.7305L9.72133 16.566L10.3482 14.7305C10.5672 14.0886 10.9236 13.5021 11.3924 13.012C11.8611 12.5218 12.4311 12.1398 13.0627 11.8924L13.2571 11.8224L15.0927 11.1947L13.2571 10.5678C12.6152 10.3488 12.0288 9.99248 11.5386 9.52369C11.0485 9.0549 10.6664 8.4849 10.419 7.85338L10.349 7.65894L9.72133 5.82338ZM15.9436 2.63916C16.0891 2.63916 16.2316 2.67998 16.3551 2.75697C16.4786 2.83397 16.578 2.94405 16.642 3.07472L16.6793 3.16572L16.9516 3.96372L17.7503 4.23594C17.8961 4.28548 18.024 4.37719 18.1176 4.49946C18.2113 4.62173 18.2665 4.76904 18.2763 4.92273C18.2862 5.07642 18.2501 5.22957 18.1728 5.36277C18.0955 5.49597 17.9804 5.60322 17.8421 5.67094L17.7503 5.70827L16.9523 5.98049L16.6801 6.77927C16.6305 6.92505 16.5387 7.05281 16.4164 7.14638C16.2941 7.23994 16.1467 7.29509 15.993 7.30483C15.8394 7.31458 15.6862 7.27848 15.5531 7.20112C15.4199 7.12376 15.3128 7.00861 15.2451 6.87027L15.2078 6.77927L14.9356 5.98127L14.1368 5.70905C13.991 5.65951 13.8631 5.56779 13.7695 5.44553C13.6758 5.32326 13.6206 5.17595 13.6108 5.02226C13.601 4.86856 13.637 4.71541 13.7143 4.58221C13.7916 4.44902 13.9067 4.34176 14.045 4.27405L14.1368 4.23672L14.9348 3.96449L15.207 3.16572C15.2594 3.01205 15.3587 2.87864 15.4908 2.78421C15.6228 2.68978 15.7812 2.63906 15.9436 2.63916Z" fill="url(#paint0_linear_328_2450)"/>
<defs>
<linearGradient id="paint0_linear_328_2450" x1="3.42504" y1="7.54185" x2="18.4888" y2="8.21067" gradientUnits="userSpaceOnUse">
<stop stop-color="#FFA05C"/>
<stop offset="1" stop-color="#FF804D"/>
</linearGradient>
</defs>
</svg>
