<svg width="39" height="13" viewBox="0 0 39 13" fill="none" xmlns="http://www.w3.org/2000/svg">
<g clip-path="url(#clip0_443_11235)">
<path d="M16.9015 12.4398H13.7422L15.7182 0.221436H18.8773L16.9015 12.4398Z" fill="white"/>
<path d="M28.352 0.520182C27.7288 0.272962 26.7404 0 25.5183 0C22.3985 0 20.2015 1.66368 20.188 4.04225C20.1621 5.79715 21.761 6.77187 22.9568 7.35701C24.1791 7.95493 24.5946 8.3452 24.5946 8.87817C24.5821 9.69671 23.6069 10.074 22.6973 10.074C21.436 10.074 20.7602 9.87949 19.7331 9.42409L19.3171 9.22887L18.875 11.9716C19.616 12.3092 20.9811 12.6088 22.3985 12.6219C25.7134 12.6219 27.8715 10.9839 27.8971 8.4492C27.9097 7.05831 27.0654 5.99255 25.2452 5.12166C24.1402 4.56261 23.4635 4.18564 23.4635 3.61363C23.4765 3.09362 24.0359 2.561 25.2832 2.561C26.3103 2.53492 27.0649 2.78179 27.6366 3.02884L27.9223 3.15858L28.352 0.520182Z" fill="white"/>
<path d="M32.552 8.11124C32.8122 7.40931 33.8133 4.69265 33.8133 4.69265C33.8002 4.71874 34.073 3.97777 34.229 3.52289L34.4498 4.57569C34.4498 4.57569 35.048 7.50036 35.1779 8.11124C34.6842 8.11124 33.176 8.11124 32.552 8.11124ZM36.4517 0.221436H34.008C33.2544 0.221436 32.6819 0.442224 32.3568 1.23519L27.6641 12.4396H30.979C30.979 12.4396 31.5247 10.9316 31.642 10.6068C32.0057 10.6068 35.2305 10.6068 35.6983 10.6068C35.789 11.0357 36.0753 12.4396 36.0753 12.4396H39.0004L36.4517 0.221436Z" fill="white"/>
<path d="M11.1007 0.221436L8.00678 8.55316L7.66869 6.86339C7.09668 4.91361 5.30273 2.79522 3.30078 1.7419L6.13475 12.4268H9.47559L14.4414 0.221436H11.1007Z" fill="white"/>
<path d="M5.13496 0.221436H0.0520007L0 0.46831C3.96503 1.48224 6.59099 3.92629 7.66988 6.86391L6.5649 1.2485C6.38299 0.468138 5.82393 0.247177 5.13496 0.221436Z" fill="white"/>
</g>
<defs>
<clipPath id="clip0_443_11235">
<rect width="39" height="12.6219" fill="white"/>
</clipPath>
</defs>
</svg>
